# xmcd
#
# Track frame offsets:
#	150
#	16566
#	38183
#	57420
#	74871
#	95237
#	115479
#	137102
#	152326
#	166112
#	184526
#	199590
#
# Disc length: 2911 seconds
#
# Revision: 1
# Processed by: cddbd v1.5.1PL0 Copyright (c) Steve Scherf et al.
# Submitted via: EasyCDDAExtractor 7.1.1.1
#
DISCID=a10b5d0c
DTITLE=Tapani Kansa - Tapsa ja Rautavaara
DYEAR=2004
DGENRE=Country
TTITLE0=Lauluni aiheet
TTITLE1=Orpopojan valssi
TTITLE2=Rakovalkealla
TTITLE3=Kulkurin iltatähti
TTITLE4=Kulkuriveljeni Jan
TTITLE5=Ontuva Eriksson
TTITLE6=Päivänsäde ja menninkäinen
TTITLE7=Kulkuri ja joutsen
TTITLE8=Juokse sinä humma
TTITLE9=Isoisän olkihattu
TTITLE10=Reppu ja reissumies
TTITLE11=Sininen uni
EXTD=
EXTT0=
EXTT1=
EXTT2=
EXTT3=
EXTT4=
EXTT5=
EXTT6=
EXTT7=
EXTT8=
EXTT9=
EXTT10=
EXTT11=
PLAYORDER=
